Coordinates
version=1
nRows=30
nColumns=34
inDegrees=no

Units are S.I. units (second, meters, Newtons, ...)
If the header above contains a line with 'inDegrees', this indicates whether rotational values are in degrees (yes) or radians (no).

endheader
time	pelvis_tilt	pelvis_list	pelvis_rotation	pelvis_tx	pelvis_ty	pelvis_tz	hip_flexion_r	hip_adduction_r	hip_rotation_r	knee_angle_r	ankle_angle_r	subtalar_angle_r	mtp_angle_r	hip_flexion_l	hip_adduction_l	hip_rotation_l	knee_angle_l	ankle_angle_l	subtalar_angle_l	mtp_angle_l	lumbar_extension	lumbar_bending	lumbar_rotation	arm_flex_r	arm_add_r	arm_rot_r	elbow_flex_r	pro_sup_r	arm_flex_l	arm_add_l	arm_rot_l	elbow_flex_l	pro_sup_l
0.62	-0.366684	-0.0114697	-0.0173484	-1.10753	1.19208	-0.587764	0.684783	-0.0313656	-0.0610805	0.77793	0.599885	0.0961669	0	0.735609	-0.0804845	-0.0667578	0.855365	0.554643	0.0930215	0	-0.299003	0.0710439	-0.073409	0.157878	-0.224755	0.0966786	0.713654	2.04621	0.0700003	-0.132233	-0.000369006	0.466288	1.84668
0.63	-0.370307	-0.011134	-0.0192876	-1.10677	1.18784	-0.587847	0.699926	-0.0315239	-0.0567217	0.801922	0.609187	0.084461	0	0.752289	-0.0840786	-0.0688185	0.882707	0.557678	0.0780885	0	-0.306751	0.0724665	-0.0741946	0.2042	-0.219578	0.112997	0.717821	2.04351	0.111481	-0.132226	0.0173827	0.478757	1.84684
0.64	-0.373197	-0.0115161	-0.0219193	-1.106	1.18351	-0.587905	0.713946	-0.0297549	-0.0508423	0.82527	0.617617	0.0694223	0	0.768066	-0.0889099	-0.070659	0.910193	0.560637	0.0621026	0	-0.314522	0.0732897	-0.0700942	0.250282	-0.214291	0.123183	0.723712	2.04235	0.158868	-0.13062	0.0330326	0.490314	1.85069
0.65	-0.375695	-0.01289	-0.0240537	-1.10531	1.17907	-0.588049	0.727076	-0.0264181	-0.0442545	0.847812	0.625094	0.0509152	0	0.783897	-0.0938317	-0.0700931	0.938044	0.56245	0.0435126	0	-0.322175	0.0737776	-0.0617569	0.295505	-0.21126	0.132074	0.733837	2.04139	0.212306	-0.126264	0.0466054	0.501515	1.85919
0.66	-0.378218	-0.0139037	-0.0255146	-1.10449	1.17454	-0.588256	0.74031	-0.0243112	-0.0389424	0.871007	0.632704	0.0331296	0	0.799805	-0.0975355	-0.0673758	0.966003	0.563383	0.0239059	0	-0.329354	0.0741967	-0.0547349	0.343224	-0.20841	0.144917	0.746127	2.03818	0.266854	-0.122269	0.0617351	0.516798	1.86568
0.67	-0.380744	-0.0145306	-0.0275314	-1.10334	1.16993	-0.588308	0.753773	-0.0234755	-0.0357209	0.895357	0.640655	0.0189204	0	0.815201	-0.101321	-0.063726	0.99392	0.563825	0.00460323	0	-0.335904	0.074887	-0.050141	0.394831	-0.203138	0.16071	0.758505	2.02965	0.320522	-0.120368	0.0791817	0.537015	1.8666
0.68	-0.382844	-0.0153483	-0.0305173	-1.1019	1.1653	-0.588144	0.766315	-0.0211372	-0.0309796	0.919474	0.648003	0.00359875	0	0.829765	-0.106357	-0.0601904	1.02205	0.562709	-0.0151973	0	-0.342032	0.0753063	-0.0452667	0.44856	-0.196668	0.177003	0.772046	2.0168	0.374981	-0.119007	0.0975491	0.560761	1.86792
0.69	-0.384419	-0.0161789	-0.033644	-1.10023	1.16068	-0.587943	0.777321	-0.0164932	-0.0222919	0.942306	0.654343	-0.0169991	0	0.843709	-0.11176	-0.0568765	1.05054	0.559089	-0.0363251	0	-0.347846	0.0750565	-0.0397419	0.503617	-0.190532	0.193817	0.787205	2.00675	0.430594	-0.117453	0.116077	0.589229	1.87468
0.7	-0.386031	-0.0168121	-0.0365471	-1.09831	1.15608	-0.587804	0.787586	-0.0116969	-0.0130118	0.964345	0.660109	-0.03901	0	0.857493	-0.11706	-0.0535471	1.07906	0.55372	-0.057661	0	-0.352794	0.0744261	-0.0347551	0.560428	-0.183274	0.209369	0.802342	2.00483	0.486603	-0.116035	0.133245	0.623479	1.88166
0.71	-0.38811	-0.0170902	-0.03944	-1.09605	1.15151	-0.58768	0.797864	-0.00841919	-0.00611785	0.986355	0.66534	-0.0587741	0	0.871	-0.122437	-0.0505985	1.10682	0.547691	-0.0782359	0	-0.356097	0.0732258	-0.0305971	0.618805	-0.17337	0.220686	0.816637	2.00905	0.542829	-0.114887	0.149532	0.662679	1.88209
0.72	-0.390324	-0.0166586	-0.0422184	-1.09339	1.14698	-0.587537	0.807797	-0.00605814	0.000356552	1.00839	0.669645	-0.0789131	0	0.883235	-0.127107	-0.0482275	1.13299	0.541753	-0.0989834	0	-0.35765	0.0709566	-0.0269687	0.678254	-0.162308	0.230268	0.831186	2.01449	0.599505	-0.114584	0.168109	0.705876	1.87738
0.73	-0.392383	-0.0156188	-0.044935	-1.09033	1.14247	-0.58735	0.816785	-0.00300888	0.00914323	1.02981	0.673327	-0.101842	0	0.893547	-0.130942	-0.0462676	1.15724	0.537215	-0.119443	0	-0.357643	0.0678131	-0.0231738	0.738332	-0.152473	0.243095	0.847536	2.01814	0.657397	-0.115139	0.188158	0.750608	1.87521
0.74	-0.39472	-0.0144284	-0.047991	-1.0869	1.13805	-0.587103	0.824839	0.00110031	0.0195039	1.04973	0.677195	-0.125422	0	0.902398	-0.134969	-0.044649	1.1796	0.534691	-0.13735	0	-0.355768	0.0643642	-0.0189932	0.798647	-0.143843	0.25882	0.866371	2.02039	0.716531	-0.116513	0.20612	0.794758	1.88499
0.75	-0.397771	-0.0130183	-0.0510668	-1.0831	1.13381	-0.586872	0.83218	0.00459792	0.0286437	1.0679	0.68174	-0.146282	0	0.910212	-0.138695	-0.0431268	1.19984	0.532927	-0.153057	0	-0.351685	0.0607765	-0.0152259	0.858941	-0.135588	0.274559	0.887907	2.02449	0.775781	-0.119777	0.22299	0.839644	1.91083
0.76	-0.401581	-0.010959	-0.0535453	-1.07883	1.1298	-0.586666	0.838763	0.0066051	0.0362739	1.08442	0.686549	-0.164469	0	0.916731	-0.140997	-0.0420105	1.21754	0.530811	-0.168545	0	-0.345252	0.056766	-0.0116813	0.91861	-0.128603	0.289954	0.912528	2.03359	0.835504	-0.123394	0.239899	0.883657	1.95155
0.77	-0.406006	-0.00856423	-0.0556491	-1.07398	1.12606	-0.586385	0.843966	0.00853844	0.0440486	1.09873	0.69201	-0.180669	0	0.921572	-0.142635	-0.0416058	1.23266	0.530091	-0.181773	0	-0.336361	0.0524223	-0.00716158	0.977084	-0.123851	0.306269	0.940129	2.04358	0.897259	-0.123966	0.256529	0.92278	1.98802
0.78	-0.410935	-0.00645149	-0.0575119	-1.06857	1.12265	-0.586109	0.84747	0.01119	0.0521687	1.11044	0.697607	-0.19628	0	0.924908	-0.143597	-0.0406515	1.24526	0.531025	-0.192679	0	-0.325024	0.0482852	-0.00272576	1.03499	-0.120752	0.32538	0.969285	2.04855	0.960337	-0.12306	0.273397	0.958004	2.01347
0.79	-0.416186	-0.00465496	-0.0583559	-1.06266	1.11964	-0.586035	0.849307	0.0132452	0.0591897	1.11974	0.702777	-0.211054	0	0.92703	-0.142735	-0.0383953	1.25544	0.531755	-0.203059	0	-0.311634	0.0448288	-0.000353649	1.09312	-0.118967	0.348064	0.999121	2.04834	1.02297	-0.125148	0.293452	0.993565	2.03534
0.8	-0.421449	-0.00308747	-0.058151	-1.05626	1.11715	-0.586063	0.849056	0.0148606	0.0651772	1.12631	0.707075	-0.22463	0	0.927828	-0.141348	-0.0362989	1.26365	0.531257	-0.211332	0	-0.296901	0.0420222	0.000977129	1.1513	-0.119417	0.374891	1.03148	2.02653	1.08543	-0.129848	0.315665	1.02751	2.07249
0.81	-0.426214	-0.00188703	-0.0576645	-1.04928	1.11531	-0.585965	0.845904	0.0165967	0.0698587	1.12955	0.711416	-0.234523	0	0.926414	-0.140975	-0.035238	1.26978	0.530733	-0.21489	0	-0.281667	0.039433	0.00342169	1.20842	-0.122214	0.398658	1.06478	2.02539	1.14914	-0.134529	0.343929	1.05977	2.08209
0.82	-0.430518	-0.00133486	-0.0567789	-1.0417	1.11425	-0.58587	0.840007	0.0181144	0.0724505	1.12959	0.713479	-0.242752	0	0.9224	-0.140109	-0.0340812	1.27274	0.529379	-0.217576	0	-0.265826	0.0372576	0.00632984	1.26398	-0.127553	0.421248	1.09994	2.02128	1.2135	-0.137947	0.372044	1.08656	2.09
0.83	-0.435072	-0.00142026	-0.0546064	-1.03345	1.114	-0.586016	0.831648	0.0190418	0.0732547	1.12594	0.712993	-0.249302	0	0.916305	-0.137612	-0.0327633	1.27169	0.527193	-0.219377	0	-0.248144	0.0362227	0.00813621	1.31722	-0.134284	0.441483	1.13477	2.01703	1.27611	-0.140862	0.398778	1.1099	2.09
0.84	-0.440061	-0.00156034	-0.0511736	-1.02443	1.11462	-0.586369	0.820516	0.0200505	0.0742409	1.11761	0.709408	-0.255637	0	0.907968	-0.134343	-0.0329023	1.26631	0.524991	-0.216339	0	-0.228112	0.0358495	0.00882869	1.36724	-0.140966	0.459088	1.16777	2.01011	1.33503	-0.143368	0.42217	1.13057	2.09
0.85	-0.44466	-0.00102269	-0.0468239	-1.01456	1.1162	-0.586836	0.806334	0.0195784	0.074377	1.10535	0.703354	-0.259313	0	0.895707	-0.130263	-0.0354507	1.25581	0.524506	-0.206149	0	-0.206603	0.034891	0.00883102	1.41297	-0.147846	0.474729	1.20002	1.99587	1.38975	-0.144275	0.442181	1.14789	2.09
0.86	-0.447824	0.000269147	-0.0420051	-1.00382	1.11886	-0.58739	0.788687	0.0159611	0.0713485	1.09028	0.695547	-0.255852	0	0.877671	-0.125234	-0.0407446	1.23925	0.526333	-0.188766	0	-0.184755	0.0329778	0.00847763	1.45329	-0.156562	0.488778	1.2336	1.97099	1.43974	-0.141948	0.457032	1.16018	2.09
0.87	-0.449098	0.00152378	-0.0376348	-0.992227	1.12273	-0.587882	0.766858	0.0108891	0.0655997	1.07182	0.684248	-0.245513	0	0.853428	-0.120636	-0.048607	1.2165	0.527613	-0.16577	0	-0.162937	0.0309333	0.00830563	1.48735	-0.166305	0.499007	1.26648	1.94949	1.48336	-0.138255	0.466425	1.16935	2.09
0.88	-0.448048	0.0021083	-0.0342734	-0.979798	1.12788	-0.588173	0.740575	0.00658554	0.0590711	1.05004	0.665971	-0.232872	0	0.823108	-0.117461	-0.058124	1.18813	0.526497	-0.137387	0	-0.141669	0.0292869	0.00866317	1.51482	-0.175236	0.504729	1.29657	1.93333	1.52005	-0.13774	0.476605	1.17935	2.09
0.89	-0.44501	0.00245726	-0.0313636	-0.966554	1.13421	-0.588409	0.711249	0.00208915	0.0517666	1.02652	0.639435	-0.219009	0	0.787883	-0.114772	-0.0685661	1.15489	0.522323	-0.103957	0	-0.120661	0.0275816	0.00916457	1.53531	-0.184553	0.507967	1.32499	1.92089	1.54993	-0.140956	0.491058	1.19052	2.09
0.9	-0.440347	0.00356321	-0.0284803	-0.952405	1.14176	-0.588684	0.679727	-0.00425715	0.042887	1.00161	0.604465	-0.203178	0	0.748486	-0.111438	-0.0800899	1.11702	0.513389	-0.0662248	0	-0.0993127	0.0252805	0.00905897	1.54812	-0.195564	0.511986	1.35305	1.9109	1.57161	-0.145842	0.504816	1.20116	2.09
0.91	-0.432902	0.00552953	-0.0258509	-0.937254	1.15072	-0.588811	0.645164	-0.0119041	0.0328259	0.975353	0.559165	-0.188035	0	0.703815	-0.107377	-0.0922239	1.0743	0.496445	-0.0262795	0	-0.0790462	0.0228827	0.007222	1.55346	-0.205641	0.518456	1.37903	1.90207	1.58439	-0.154617	0.515264	1.21237	2.09
